<svg width="28" height="28" viewBox="0 0 28 28" fill="none" xmlns="http://www.w3.org/2000/svg">
<path d="M13.9867 0.1875C6.36328 0.1875 0.1875 6.37656 0.1875 14C0.1875 21.6234 6.36328 27.8125 13.9867 27.8125C21.6234 27.8125 27.8125 21.6234 27.8125 14C27.8125 6.37656 21.6234 0.1875 13.9867 0.1875ZM14 25.05C7.89727 25.05 2.95 20.1027 2.95 14C2.95 7.89727 7.89727 2.95 14 2.95C20.1027 2.95 25.05 7.89727 25.05 14C25.05 20.1027 20.1027 25.05 14 25.05Z" fill="black" fill-opacity="0.5"/>
<path d="M14.6905 7.09375H12.6187V15.3812L19.8702 19.7309L20.9062 18.0309L14.6905 14.3453V7.09375Z" fill="black" fill-opacity="0.5"/>
</svg>
