<svg width="14" height="14" viewBox="0 0 14 14" fill="none" xmlns="http://www.w3.org/2000/svg">
<path d="M0.25 13.75H3.0625L11.3575 5.455L8.545 2.6425L0.25 10.9375V13.75ZM1.75 11.56L8.545 4.765L9.235 5.455L2.44 12.25H1.75V11.56ZM11.7775 0.467502C11.7081 0.397974 11.6257 0.342814 11.535 0.305178C11.4442 0.267541 11.347 0.248169 11.2488 0.248169C11.1505 0.248169 11.0533 0.267541 10.9625 0.305178C10.8718 0.342814 10.7894 0.397974 10.72 0.467502L9.3475 1.84L12.16 4.6525L13.5325 3.28C13.602 3.21062 13.6572 3.1282 13.6948 3.03747C13.7325 2.94674 13.7518 2.84948 13.7518 2.75125C13.7518 2.65303 13.7325 2.55576 13.6948 2.46503C13.6572 2.3743 13.602 2.29189 13.5325 2.2225L11.7775 0.467502Z" fill="white"/>
</svg>
